<mxfile host="app.diagrams.net" modified="2024-03-29T00:51:24.700Z" agent="Mozilla/5.0 (Windows NT 10.0; Win64; x64) AppleWebKit/537.36 (KHTML, like Gecko) Chrome/123.0.0.0 Safari/537.36" version="24.2.1" etag="O16LHp8_ciAmDeHkNWFH" type="github">
  <diagram name="第 1 页" id="MAXJ5-KIVfce4ZTLdzTK">
    <mxGraphModel>
      <root>
        <mxCell id="0" />
        <mxCell id="1" parent="0" />
      </root>
    </mxGraphModel>
  </diagram>
</mxfile>
